<?xml version="1.0" encoding="UTF-8" standalone="no"?>
<!-- Created with Inkscape (http://www.inkscape.org/) -->

<svg
   xmlns:dc="http://purl.org/dc/elements/1.1/"
   xmlns:cc="http://creativecommons.org/ns#"
   xmlns:rdf="http://www.w3.org/1999/02/22-rdf-syntax-ns#"
   xmlns:svg="http://www.w3.org/2000/svg"
   xmlns="http://www.w3.org/2000/svg"
   xmlns:sodipodi="http://sodipodi.sourceforge.net/DTD/sodipodi-0.dtd"
   xmlns:inkscape="http://www.inkscape.org/namespaces/inkscape"
   width="744.09448819"
   height="1052.3622047"
   id="svg2"
   version="1.1"
   inkscape:version="0.48.4 r9939"
   sodipodi:docname="drawing.svg">
  <style
     id="style4196"> /*  */
    .cut { fill: none; stroke: #000000; stroke-width: 0.2px; }
    .engrave { fill: #000000; stroke: none; }
    .find { fill: none; stroke: #FF0000; stroke-width: 0.2px; }
    /*  */
  </style>
  <defs
     id="defs4" />
  <sodipodi:namedview
     id="base"
     pagecolor="#ffffff"
     bordercolor="#666666"
     borderopacity="1.0"
     inkscape:pageopacity="0.0"
     inkscape:pageshadow="2"
     inkscape:zoom="1.4"
     inkscape:cx="469.1567"
     inkscape:cy="433.37292"
     inkscape:document-units="px"
     inkscape:current-layer="svg2"
     showgrid="false" />
  <metadata
     id="metadata7">
    <rdf:RDF>
      <cc:Work
         rdf:about="">
        <dc:format>image/svg+xml</dc:format>
        <dc:type
           rdf:resource="http://purl.org/dc/dcmitype/StillImage" />
        <dc:title />
      </cc:Work>
    </rdf:RDF>
  </metadata>
  <text
     xml:space="preserve"
     style="font-style:normal;font-variant:normal;font-weight:normal;font-stretch:normal;font-size:16px;line-height:125%;font-family:Garuda;-inkscape-font-specification:Garuda;text-align:start;letter-spacing:0px;word-spacing:0px;writing-mode:lr-tb;text-anchor:start;fill:#000000;fill-opacity:1;stroke:none"
     x="452.93939"
     y="917.62726"
     id="text3776"
     sodipodi:linespacing="125%"><tspan
       sodipodi:role="line"
       id="tspan3778"
       x="452.93939"
       y="917.62726">Original Shapes</tspan><tspan
       sodipodi:role="line"
       x="452.93939"
       y="937.62726"
       id="tspan3780">No Touch</tspan></text>
  <text
     xml:space="preserve"
     style="font-style:normal;font-variant:normal;font-weight:normal;font-stretch:normal;font-size:16px;line-height:125%;font-family:Garuda;-inkscape-font-specification:Garuda;text-align:start;letter-spacing:0px;word-spacing:0px;writing-mode:lr-tb;text-anchor:start;fill:#000000;fill-opacity:1;stroke:none"
     x="446.41605"
     y="716.66681"
     id="text3863"
     sodipodi:linespacing="125%"><tspan
       sodipodi:role="line"
       id="tspan3865"
       x="446.41605"
       y="716.66681">Pair of rack Ears</tspan></text>
  <text
     xml:space="preserve"
     style="font-style:normal;font-variant:normal;font-weight:normal;font-stretch:normal;font-size:16px;line-height:125%;font-family:Garuda;-inkscape-font-specification:Garuda;text-align:start;letter-spacing:0px;word-spacing:0px;writing-mode:lr-tb;text-anchor:start;fill:#000000;fill-opacity:1;stroke:none"
     x="227.84465"
     y="500.23825"
     id="text3891"
     sodipodi:linespacing="125%"><tspan
       sodipodi:role="line"
       id="tspan3893"
       x="227.84465"
       y="500.23825">Use to cut into the shure</tspan><tspan
       sodipodi:role="line"
       x="227.84465"
       y="520.23828"
       id="tspan3895">ears and join psm unit to</tspan><tspan
       sodipodi:role="line"
       x="227.84465"
       y="540.23828"
       id="tspan3897">motu unit</tspan></text>
  <!--     <defs
     id="defs4296"> -->
  <circle
     style="fill:none;stroke:#000000;stroke-width:0.2px"
     sodipodi:ry="8.586297"
     sodipodi:rx="8.586297"
     sodipodi:cy="898.56647"
     sodipodi:cx="-26.263966"
     d="m -17.677669,898.56647 c 0,4.74208 -3.844216,8.58629 -8.586297,8.58629 -4.742081,0 -8.586297,-3.84421 -8.586297,-8.58629 0,-4.74208 3.844216,-8.5863 8.586297,-8.5863 4.742081,0 8.586297,3.84422 8.586297,8.5863 z"
     r="8.586297"
     cy="898.56647"
     cx="-26.263966"
     class="cut"
     id="path3757"
     transform="matrix(0.71541741,0,0,0.71541741,131.59749,388.28571)" />
  <circle
     style="fill:none;stroke:#000000;stroke-width:0.2px"
     sodipodi:ry="8.586297"
     sodipodi:rx="8.586297"
     sodipodi:cy="898.56647"
     sodipodi:cx="-26.263966"
     d="m -17.677669,898.56647 c 0,4.74208 -3.844216,8.58629 -8.586297,8.58629 -4.742081,0 -8.586297,-3.84421 -8.586297,-8.58629 0,-4.74208 3.844216,-8.5863 8.586297,-8.5863 4.742081,0 8.586297,3.84422 8.586297,8.5863 z"
     id="circle4226"
     r="8.586297"
     cy="898.56647"
     cx="-26.263966"
     transform="matrix(0.71541741,0,0,0.71541741,131.59749,253.37571)"
     class="cut" />
  <circle
     style="fill:none;stroke:#000000;stroke-width:0.2px"
     sodipodi:ry="8.586297"
     sodipodi:rx="8.586297"
     sodipodi:cy="898.56647"
     sodipodi:cx="-26.263966"
     d="m -17.677669,898.56647 c 0,4.74208 -3.844216,8.58629 -8.586297,8.58629 -4.742081,0 -8.586297,-3.84421 -8.586297,-8.58629 0,-4.74208 3.844216,-8.5863 8.586297,-8.5863 4.742081,0 8.586297,3.84422 8.586297,8.5863 z"
     r="8.586297"
     cy="898.56647"
     cx="-26.263966"
     transform="matrix(0.71541741,0,0,0.71541741,334.18748,388.28571)"
     id="path3762"
     class="cut" />
  <circle
     style="fill:none;stroke:#000000;stroke-width:0.2px"
     sodipodi:ry="8.586297"
     sodipodi:rx="8.586297"
     sodipodi:cy="898.56647"
     sodipodi:cx="-26.263966"
     d="m -17.677669,898.56647 c 0,4.74208 -3.844216,8.58629 -8.586297,8.58629 -4.742081,0 -8.586297,-3.84421 -8.586297,-8.58629 0,-4.74208 3.844216,-8.5863 8.586297,-8.5863 4.742081,0 8.586297,3.84422 8.586297,8.5863 z"
     r="8.586297"
     cy="898.56647"
     cx="-26.263966"
     class="cut"
     id="path3764"
     transform="matrix(0.71541741,0,0,0.71541741,334.18748,253.37571)" />
  <rect
     style="fill:none;stroke:#000000;stroke-width:0.2px"
     ry="9.6383038"
     rx="9.6383038"
     class="cut"
     id="rect3768"
     width="34.524403"
     height="25.271631"
     x="25.97279"
     y="1007.1467" />
  <rect
     style="fill:none;stroke:#000000;stroke-width:0.2px"
     y="894.91699"
     x="25.97279"
     height="25.271631"
     width="34.524403"
     id="rect3770"
     class="cut"
     rx="9.6383038"
     ry="9.6383038" />
  <rect
     style="fill:none;stroke:#000000;stroke-width:0.2px"
     y="1007.1467"
     x="356.5"
     height="25.271631"
     width="34.524403"
     id="rect3772"
     class="cut"
     rx="9.6383038"
     ry="9.6383038" />
  <rect
     style="fill:none;stroke:#000000;stroke-width:0.2px"
     ry="9.6383038"
     rx="9.6383038"
     class="cut"
     id="rect3774"
     width="34.524403"
     height="25.271631"
     x="356.5"
     y="894.91699" />
  <rect
     style="fill:none;stroke:#000000;stroke-width:0.19722053px"
     class="cut"
     id="rect2985"
     width="396.79279"
     height="157.29593"
     x="10.052541"
     y="885.0072"
     rx="9.7238121" />
  <rect
     style="fill:none;stroke:#000000;stroke-width:0.2px"
     y="884.99219"
     x="106.665"
     height="157.32001"
     width="214.92"
     id="rect3755"
     class="cut"
     rx="45"
     ry="60" />
  <!-- </defs> -->
  <path
     transform="matrix(0.71541741,0,0,0.71541741,334.18748,188.2357)"
     style="fill:none;stroke:#000000;stroke-width:0.2px"
     d="m -17.677669,898.56647 c 0,4.74208 -3.844216,8.58629 -8.586297,8.58629 -4.742081,0 -8.586297,-3.84421 -8.586297,-8.58629 0,-4.74208 3.844216,-8.5863 8.586297,-8.5863 4.742081,0 8.586297,3.84422 8.586297,8.5863 z"
     id="circle3135" />
  <path
     transform="matrix(0.71541741,0,0,0.71541741,334.18748,53.325698)"
     style="fill:none;stroke:#000000;stroke-width:0.2px"
     d="m -17.677669,898.56647 c 0,4.74208 -3.844216,8.58629 -8.586297,8.58629 -4.742081,0 -8.586297,-3.84421 -8.586297,-8.58629 0,-4.74208 3.844216,-8.5863 8.586297,-8.5863 4.742081,0 8.586297,3.84422 8.586297,8.5863 z"
     id="circle3137" />
  <path
     style="fill:none;stroke:#000000;stroke-width:0.2px"
     d="m 366.1383,807.09674 15.2478,0 c 5.33962,0 9.6383,4.29868 9.6383,9.6383 l 0,5.99503 c 0,5.33962 -4.29868,9.6383 -9.6383,9.6383 l -15.2478,0 c -5.33962,0 -9.6383,-4.29868 -9.6383,-9.6383 l 0,-5.99503 c 0,-5.33962 4.29868,-9.6383 9.6383,-9.6383 z"
     id="rect3143" />
  <path
     style="fill:none;stroke:#000000;stroke-width:0.2px"
     d="m 366.1383,694.867 15.2478,0 c 5.33962,0 9.6383,4.29869 9.6383,9.63831 l 0,5.99502 c 0,5.33962 -4.29868,9.63831 -9.6383,9.63831 l -15.2478,0 c -5.33962,0 -9.6383,-4.29869 -9.6383,-9.63831 l 0,-5.99502 c 0,-5.33962 4.29868,-9.63831 9.6383,-9.63831 z"
     id="rect3145" />
  <path
     style="fill:none;stroke:#000000;stroke-width:0.19722053px"
     d="m 277.375,684.96875 c 24.5636,0.55682 44.21875,27.07967 44.21875,59.96875 l 0,37.3125 c 0,33.24 -20.07,60 -45,60 l 120.53125,0 c 5.387,0 9.71875,-4.33176 9.71875,-9.71875 l 0,-137.84375 c 0,-5.387 -4.33175,-9.71875 -9.71875,-9.71875 l -119.75,0 z"
     id="rect3147" />
  <path
     id="path3166"
     d="m 145.40179,631.09937 c 0,3.39256 2.75022,6.14278 6.14279,6.14278 3.39257,0 6.14278,-2.75022 6.14278,-6.14278 0,-3.39257 -2.75021,-6.14279 -6.14278,-6.14279 -3.39257,0 -6.14279,2.75022 -6.14279,6.14279 z"
     style="fill:none;stroke:#000000;stroke-width:0.14308348px"
     inkscape:connector-curvature="0" />
  <path
     id="path3168"
     d="m 145.40179,496.18936 c 0,3.39257 2.75022,6.14279 6.14279,6.14279 3.39257,0 6.14278,-2.75022 6.14278,-6.14279 0,-3.39256 -2.75021,-6.14278 -6.14278,-6.14278 -3.39257,0 -6.14279,2.75022 -6.14279,6.14278 z"
     style="fill:none;stroke:#000000;stroke-width:0.14308348px"
     inkscape:connector-curvature="0" />
  <path
     style="fill:none;stroke:#000000;stroke-width:0.19722053px"
     d="m 189.56736,484.98232 c -24.5636,0.55682 -44.21875,27.07967 -44.21875,59.96875 l 0,37.3125 c 0,33.24 20.07,60 45,60"
     id="path3178" />
</svg>
