<?xml version="1.0" encoding="UTF-8" standalone="no"?>
<!-- Created with Inkscape (http://www.inkscape.org/) -->

<svg
   xmlns:dc="http://purl.org/dc/elements/1.1/"
   xmlns:cc="http://creativecommons.org/ns#"
   xmlns:rdf="http://www.w3.org/1999/02/22-rdf-syntax-ns#"
   xmlns:svg="http://www.w3.org/2000/svg"
   xmlns="http://www.w3.org/2000/svg"
   xmlns:sodipodi="http://sodipodi.sourceforge.net/DTD/sodipodi-0.dtd"
   xmlns:inkscape="http://www.inkscape.org/namespaces/inkscape"
   width="744.09448819"
   height="1052.3622047"
   id="svg2"
   version="1.1"
   inkscape:version="0.91 r13725"
   sodipodi:docname="drawing.svg">
  <style
     id="style4196"> /*  */
    .cut { fill: none; stroke: #000000; stroke-width: 0.2px; }
    .engrave { fill: #000000; stroke: none; }
    .find { fill: none; stroke: #FF0000; stroke-width: 0.2px; }
    /*  */
  </style>
  <defs
     id="defs4" />
  <sodipodi:namedview
     id="base"
     pagecolor="#ffffff"
     bordercolor="#666666"
     borderopacity="1.0"
     inkscape:pageopacity="0.0"
     inkscape:pageshadow="2"
     inkscape:zoom="0.7"
     inkscape:cx="172.58829"
     inkscape:cy="350.79996"
     inkscape:document-units="px"
     inkscape:current-layer="svg2"
     showgrid="false" />
  <metadata
     id="metadata7">
    <rdf:RDF>
      <cc:Work
         rdf:about="">
        <dc:format>image/svg+xml</dc:format>
        <dc:type
           rdf:resource="http://purl.org/dc/dcmitype/StillImage" />
        <dc:title />
      </cc:Work>
    </rdf:RDF>
  </metadata>
  <path
     style="fill:none;stroke:#000000;stroke-width:0.1;stroke-linecap:butt;stroke-linejoin:miter;stroke-miterlimit:4;stroke-dasharray:none;stroke-opacity:1"
     d="M 165.64375,642.31466 C 132.88577,641.76514 106.675,615.23966 106.675,582.34591 L 106.675,545.00216 106.675,545.00216 C 106.675,512.10841 132.88577,485.58293 165.64375,485.03341"
     id="path3887"
     inkscape:connector-curvature="0"
     sodipodi:nodetypes="csccc" />
  <text
     xml:space="preserve"
     style="font-style:normal;font-variant:normal;font-weight:normal;font-stretch:normal;font-size:16px;line-height:125%;font-family:Garuda;-inkscape-font-specification:Garuda;text-align:start;letter-spacing:0px;word-spacing:0px;writing-mode:lr-tb;text-anchor:start;fill:#000000;fill-opacity:1;stroke:none"
     x="452.93939"
     y="917.62726"
     id="text3776"
     sodipodi:linespacing="125%"><tspan
       sodipodi:role="line"
       id="tspan3778"
       x="452.93939"
       y="917.62726">Original Shapes</tspan><tspan
       sodipodi:role="line"
       x="452.93939"
       y="937.62726"
       id="tspan3780">No Touch</tspan></text>
  <text
     xml:space="preserve"
     style="font-style:normal;font-variant:normal;font-weight:normal;font-stretch:normal;font-size:16px;line-height:125%;font-family:Garuda;-inkscape-font-specification:Garuda;text-align:start;letter-spacing:0px;word-spacing:0px;writing-mode:lr-tb;text-anchor:start;fill:#000000;fill-opacity:1;stroke:none"
     x="446.41605"
     y="716.66681"
     id="text3863"
     sodipodi:linespacing="125%"><tspan
       sodipodi:role="line"
       id="tspan3865"
       x="446.41605"
       y="716.66681">Pair of rack Ears</tspan></text>
  <text
     xml:space="preserve"
     style="font-style:normal;font-variant:normal;font-weight:normal;font-stretch:normal;font-size:16px;line-height:125%;font-family:Garuda;-inkscape-font-specification:Garuda;text-align:start;letter-spacing:0px;word-spacing:0px;writing-mode:lr-tb;text-anchor:start;fill:#000000;fill-opacity:1;stroke:none"
     x="227.84465"
     y="500.23825"
     id="text3891"
     sodipodi:linespacing="125%"><tspan
       sodipodi:role="line"
       id="tspan3893"
       x="227.84465"
       y="500.23825">Use to cut into the shure</tspan><tspan
       sodipodi:role="line"
       x="227.84465"
       y="520.23828"
       id="tspan3895">ears and join psm unit to</tspan><tspan
       sodipodi:role="line"
       x="227.84465"
       y="540.23828"
       id="tspan3897">motu unit</tspan></text>
  <path
     id="path3875"
     d="M 118.95058,496.24672 C 118.95058,499.63929 116.20036,502.3895 112.80779,502.3895 109.41522,502.3895 106.66501,499.63929 106.66501,496.24672 106.66501,492.85415 109.41522,490.10393 112.80779,490.10393 116.20036,490.10393 118.95058,492.85415 118.95058,496.24672 Z"
     style="fill:none;stroke:#000000;stroke-width:0.1;stroke-miterlimit:4;stroke-dasharray:none;stroke-dashoffset:0;stroke-opacity:1"
     inkscape:connector-curvature="0" />
  <path
     id="path3873"
     d="M 118.95058,631.15672 C 118.95058,634.54929 116.20036,637.2995 112.80779,637.2995 109.41522,637.2995 106.66501,634.54929 106.66501,631.15672 106.66501,627.76415 109.41522,625.01393 112.80779,625.01393 116.20036,625.01393 118.95058,627.76415 118.95058,631.15672 Z"
     style="fill:none;stroke:#000000;stroke-width:0.1;stroke-miterlimit:4;stroke-dasharray:none;stroke-dashoffset:0;stroke-opacity:1"
     inkscape:connector-curvature="0" />
  <!--     <defs
     id="defs4296"> -->
  <g
     id="g4291">
    <circle
       transform="matrix(0.71541741,0,0,0.71541741,131.59749,388.28571)"
       id="path3757"
       class="cut"
       cx="-26.263966"
       cy="898.56647"
       r="8.586297"
       d="m -17.677669,898.56647 c 0,4.74208 -3.844216,8.58629 -8.586297,8.58629 -4.742081,0 -8.586297,-3.84421 -8.586297,-8.58629 0,-4.74208 3.844216,-8.5863 8.586297,-8.5863 4.742081,0 8.586297,3.84422 8.586297,8.5863 z"
       sodipodi:cx="-26.263966"
       sodipodi:cy="898.56647"
       sodipodi:rx="8.586297"
       sodipodi:ry="8.586297"
       style="fill:none;stroke:#000000;stroke-width:0.2px" />
    <circle
       class="cut"
       transform="matrix(0.71541741,0,0,0.71541741,131.59749,253.37571)"
       cx="-26.263966"
       cy="898.56647"
       r="8.586297"
       id="circle4226"
       d="m -17.677669,898.56647 c 0,4.74208 -3.844216,8.58629 -8.586297,8.58629 -4.742081,0 -8.586297,-3.84421 -8.586297,-8.58629 0,-4.74208 3.844216,-8.5863 8.586297,-8.5863 4.742081,0 8.586297,3.84422 8.586297,8.5863 z"
       sodipodi:cx="-26.263966"
       sodipodi:cy="898.56647"
       sodipodi:rx="8.586297"
       sodipodi:ry="8.586297"
       style="fill:none;stroke:#000000;stroke-width:0.2px" />
    <circle
       class="cut"
       id="path3762"
       transform="matrix(0.71541741,0,0,0.71541741,334.18748,388.28571)"
       cx="-26.263966"
       cy="898.56647"
       r="8.586297"
       d="m -17.677669,898.56647 c 0,4.74208 -3.844216,8.58629 -8.586297,8.58629 -4.742081,0 -8.586297,-3.84421 -8.586297,-8.58629 0,-4.74208 3.844216,-8.5863 8.586297,-8.5863 4.742081,0 8.586297,3.84422 8.586297,8.5863 z"
       sodipodi:cx="-26.263966"
       sodipodi:cy="898.56647"
       sodipodi:rx="8.586297"
       sodipodi:ry="8.586297"
       style="fill:none;stroke:#000000;stroke-width:0.2px" />
    <circle
       transform="matrix(0.71541741,0,0,0.71541741,334.18748,253.37571)"
       id="path3764"
       class="cut"
       cx="-26.263966"
       cy="898.56647"
       r="8.586297"
       d="m -17.677669,898.56647 c 0,4.74208 -3.844216,8.58629 -8.586297,8.58629 -4.742081,0 -8.586297,-3.84421 -8.586297,-8.58629 0,-4.74208 3.844216,-8.5863 8.586297,-8.5863 4.742081,0 8.586297,3.84422 8.586297,8.5863 z"
       sodipodi:cx="-26.263966"
       sodipodi:cy="898.56647"
       sodipodi:rx="8.586297"
       sodipodi:ry="8.586297"
       style="fill:none;stroke:#000000;stroke-width:0.2px" />
    <rect
       y="1007.1467"
       x="25.97279"
       height="25.271631"
       width="34.524403"
       id="rect3768"
       class="cut"
       rx="9.6383038"
       ry="9.6383038"
       style="fill:none;stroke:#000000;stroke-width:0.2px" />
    <rect
       ry="9.6383038"
       rx="9.6383038"
       class="cut"
       id="rect3770"
       width="34.524403"
       height="25.271631"
       x="25.97279"
       y="894.91699"
       style="fill:none;stroke:#000000;stroke-width:0.2px" />
    <rect
       ry="9.6383038"
       rx="9.6383038"
       class="cut"
       id="rect3772"
       width="34.524403"
       height="25.271631"
       x="356.5"
       y="1007.1467"
       style="fill:none;stroke:#000000;stroke-width:0.2px" />
    <rect
       y="894.91699"
       x="356.5"
       height="25.271631"
       width="34.524403"
       id="rect3774"
       class="cut"
       rx="9.6383038"
       ry="9.6383038"
       style="fill:none;stroke:#000000;stroke-width:0.2px" />
    <rect
       rx="9.7238121"
       y="885.0072"
       x="10.052541"
       height="157.29593"
       width="396.79279"
       id="rect2985"
       class="cut"
       style="fill:none;stroke:#000000;stroke-width:0.19722053px" />
    <rect
       ry="60"
       rx="60"
       class="cut"
       id="rect3755"
       width="214.92"
       height="157.32001"
       x="106.665"
       y="884.99219"
       style="fill:none;stroke:#000000;stroke-width:0.2px" />
  </g>
  <!-- </defs> -->
  <path
     transform="matrix(0.71541741,0,0,0.71541741,334.18748,188.2357)"
     style="fill:none;stroke:#000000;stroke-width:0.2px"
     d="m -17.677669,898.56647 c 0,4.74208 -3.844216,8.58629 -8.586297,8.58629 -4.742081,0 -8.586297,-3.84421 -8.586297,-8.58629 0,-4.74208 3.844216,-8.5863 8.586297,-8.5863 4.742081,0 8.586297,3.84422 8.586297,8.5863 z"
     id="circle4250" />
  <path
     transform="matrix(0.71541741,0,0,0.71541741,334.18748,53.325698)"
     style="fill:none;stroke:#000000;stroke-width:0.2px"
     d="m -17.677669,898.56647 c 0,4.74208 -3.844216,8.58629 -8.586297,8.58629 -4.742081,0 -8.586297,-3.84421 -8.586297,-8.58629 0,-4.74208 3.844216,-8.5863 8.586297,-8.5863 4.742081,0 8.586297,3.84422 8.586297,8.5863 z"
     id="circle4252" />
  <path
     style="fill:none;stroke:#000000;stroke-width:0.2px"
     d="m 366.1383,807.09674 15.2478,0 c 5.33962,0 9.6383,4.29868 9.6383,9.6383 l 0,5.99503 c 0,5.33962 -4.29868,9.6383 -9.6383,9.6383 l -15.2478,0 c -5.33962,0 -9.6383,-4.29868 -9.6383,-9.6383 l 0,-5.99503 c 0,-5.33962 4.29868,-9.6383 9.6383,-9.6383 z"
     id="rect4258" />
  <path
     style="fill:none;stroke:#000000;stroke-width:0.2px"
     d="m 366.1383,694.867 15.2478,0 c 5.33962,0 9.6383,4.29869 9.6383,9.63831 l 0,5.99502 c 0,5.33962 -4.29868,9.63831 -9.6383,9.63831 l -15.2478,0 c -5.33962,0 -9.6383,-4.29869 -9.6383,-9.63831 l 0,-5.99502 c 0,-5.33962 4.29868,-9.63831 9.6383,-9.63831 z"
     id="rect4260" />
  <path
     style="fill:none;stroke:#000000;stroke-width:0.19722053px"
     d="m 262.625,684.96875 c 32.75798,0.54952 58.96875,27.075 58.96875,59.96875 l 0,37.3125 c 0,33.24 -26.76,60 -60,60 l 135.53125,0 c 5.387,0 9.71875,-4.33176 9.71875,-9.71875 l 0,-137.84375 c 0,-5.387 -4.33175,-9.71875 -9.71875,-9.71875 l -134.5,0 z"
     id="rect4262" />
  <path
     id="path4281"
     d="m 142.89693,831.0858 c 0,3.39256 2.75022,6.14278 6.14279,6.14278 3.39257,0 6.14278,-2.75022 6.14278,-6.14278 0,-3.39257 -2.75021,-6.14279 -6.14278,-6.14279 -3.39257,0 -6.14279,2.75022 -6.14279,6.14279 z"
     style="fill:none;stroke:#000000;stroke-width:0.14308348px"
     inkscape:connector-curvature="0" />
  <path
     id="path4283"
     d="m 142.89693,696.17579 c 0,3.39257 2.75022,6.14279 6.14279,6.14279 3.39257,0 6.14278,-2.75022 6.14278,-6.14279 0,-3.39256 -2.75021,-6.14278 -6.14278,-6.14278 -3.39257,0 -6.14279,2.75022 -6.14279,6.14278 z"
     style="fill:none;stroke:#000000;stroke-width:0.14308348px"
     inkscape:connector-curvature="0" />
  <path
     id="path4285"
     d="m 98.2992,807.09674 -15.2478,0 c -5.33962,0 -9.6383,4.29868 -9.6383,9.6383 l 0,5.99503 c 0,5.33962 4.29868,9.6383 9.6383,9.6383 l 15.2478,0 c 5.33962,0 9.6383,-4.29868 9.6383,-9.6383 l 0,-5.99503 c 0,-5.33962 -4.29868,-9.6383 -9.6383,-9.6383 z"
     style="fill:none;stroke:#000000;stroke-width:0.2px"
     inkscape:connector-curvature="0" />
  <path
     id="path4287"
     d="m 98.2992,694.867 -15.2478,0 c -5.33962,0 -9.6383,4.29869 -9.6383,9.63831 l 0,5.99502 c 0,5.33962 4.29868,9.63831 9.6383,9.63831 l 15.2478,0 c 5.33962,0 9.6383,-4.29869 9.6383,-9.63831 l 0,-5.99502 c 0,-5.33962 -4.29868,-9.63831 -9.6383,-9.63831 z"
     style="fill:none;stroke:#000000;stroke-width:0.2px"
     inkscape:connector-curvature="0" />
  <path
     id="path4289"
     d="m 201.8125,684.96875 c -32.75798,0.54952 -58.96875,27.075 -58.96875,59.96875 l 0,37.3125 c 0,33.24 26.76,60 60,60 l -135.53125,0 c -5.387,0 -9.71875,-4.33176 -9.71875,-9.71875 l 0,-137.84375 c 0,-5.387 4.33175,-9.71875 9.71875,-9.71875 l 134.5,0 z"
     style="fill:none;stroke:#000000;stroke-width:0.19722053px"
     inkscape:connector-curvature="0" />
</svg>
