<?xml version="1.0" encoding="UTF-8" standalone="no"?>
<!-- Created with Inkscape (http://www.inkscape.org/) -->

<svg
   xmlns:dc="http://purl.org/dc/elements/1.1/"
   xmlns:cc="http://creativecommons.org/ns#"
   xmlns:rdf="http://www.w3.org/1999/02/22-rdf-syntax-ns#"
   xmlns:svg="http://www.w3.org/2000/svg"
   xmlns="http://www.w3.org/2000/svg"
   xmlns:sodipodi="http://sodipodi.sourceforge.net/DTD/sodipodi-0.dtd"
   xmlns:inkscape="http://www.inkscape.org/namespaces/inkscape"
   width="744.09448819"
   height="1052.3622047"
   id="svg2"
   version="1.1"
   inkscape:version="0.91 r13725"
   sodipodi:docname="drawing.svg">
  <style
     id="style4196"> /*  */
    .cut { fill: none; stroke: #000000; stroke-width: 0.2px; }
    .engrave { fill: #000000; stroke: none; }
    .find { fill: none; stroke: #FF0000; stroke-width: 0.2px; }
    /*  */
  </style>
  <defs
     id="defs4" />
  <sodipodi:namedview
     id="base"
     pagecolor="#ffffff"
     bordercolor="#666666"
     borderopacity="1.0"
     inkscape:pageopacity="0.0"
     inkscape:pageshadow="2"
     inkscape:zoom="0.7"
     inkscape:cx="31.162671"
     inkscape:cy="352.81124"
     inkscape:document-units="px"
     inkscape:current-layer="svg2"
     showgrid="false" />
  <metadata
     id="metadata7">
    <rdf:RDF>
      <cc:Work
         rdf:about="">
        <dc:format>image/svg+xml</dc:format>
        <dc:type
           rdf:resource="http://purl.org/dc/dcmitype/StillImage" />
        <dc:title />
      </cc:Work>
    </rdf:RDF>
  </metadata>
  <text
     xml:space="preserve"
     style="font-style:normal;font-variant:normal;font-weight:normal;font-stretch:normal;font-size:16px;line-height:125%;font-family:Garuda;-inkscape-font-specification:Garuda;text-align:start;letter-spacing:0px;word-spacing:0px;writing-mode:lr-tb;text-anchor:start;fill:#000000;fill-opacity:1;stroke:none"
     x="452.93939"
     y="917.62726"
     id="text3776"
     sodipodi:linespacing="125%"><tspan
       sodipodi:role="line"
       id="tspan3778"
       x="452.93939"
       y="917.62726">Original Shapes</tspan><tspan
       sodipodi:role="line"
       x="452.93939"
       y="937.62726"
       id="tspan3780">No Touch</tspan></text>
  <text
     xml:space="preserve"
     style="font-style:normal;font-variant:normal;font-weight:normal;font-stretch:normal;font-size:16px;line-height:125%;font-family:Garuda;-inkscape-font-specification:Garuda;text-align:start;letter-spacing:0px;word-spacing:0px;writing-mode:lr-tb;text-anchor:start;fill:#000000;fill-opacity:1;stroke:none"
     x="446.41605"
     y="716.66681"
     id="text3863"
     sodipodi:linespacing="125%"><tspan
       sodipodi:role="line"
       id="tspan3865"
       x="446.41605"
       y="716.66681">Pair of rack Ears</tspan></text>
  <text
     xml:space="preserve"
     style="font-style:normal;font-variant:normal;font-weight:normal;font-stretch:normal;font-size:16px;line-height:125%;font-family:Garuda;-inkscape-font-specification:Garuda;text-align:start;letter-spacing:0px;word-spacing:0px;writing-mode:lr-tb;text-anchor:start;fill:#000000;fill-opacity:1;stroke:none"
     x="227.84465"
     y="500.23825"
     id="text3891"
     sodipodi:linespacing="125%"><tspan
       sodipodi:role="line"
       id="tspan3893"
       x="227.84465"
       y="500.23825">Use to cut into the shure</tspan><tspan
       sodipodi:role="line"
       x="227.84465"
       y="520.23828"
       id="tspan3895">ears and join psm unit to</tspan><tspan
       sodipodi:role="line"
       x="227.84465"
       y="540.23828"
       id="tspan3897">motu unit</tspan></text>
  <!--     <defs
     id="defs4296"> -->
  <circle
     style="fill:none;stroke:#000000;stroke-width:0.2px"
     sodipodi:ry="8.586297"
     sodipodi:rx="8.586297"
     sodipodi:cy="898.56647"
     sodipodi:cx="-26.263966"
     d="m -17.677669,898.56647 c 0,4.74208 -3.844216,8.58629 -8.586297,8.58629 -4.742081,0 -8.586297,-3.84421 -8.586297,-8.58629 0,-4.74208 3.844216,-8.5863 8.586297,-8.5863 4.742081,0 8.586297,3.84422 8.586297,8.5863 z"
     r="8.586297"
     cy="898.56647"
     cx="-26.263966"
     class="cut"
     id="path3757"
     transform="matrix(0.71541741,0,0,0.71541741,131.59749,388.28571)" />
  <circle
     style="fill:none;stroke:#000000;stroke-width:0.2px"
     sodipodi:ry="8.586297"
     sodipodi:rx="8.586297"
     sodipodi:cy="898.56647"
     sodipodi:cx="-26.263966"
     d="m -17.677669,898.56647 c 0,4.74208 -3.844216,8.58629 -8.586297,8.58629 -4.742081,0 -8.586297,-3.84421 -8.586297,-8.58629 0,-4.74208 3.844216,-8.5863 8.586297,-8.5863 4.742081,0 8.586297,3.84422 8.586297,8.5863 z"
     id="circle4226"
     r="8.586297"
     cy="898.56647"
     cx="-26.263966"
     transform="matrix(0.71541741,0,0,0.71541741,131.59749,253.37571)"
     class="cut" />
  <circle
     style="fill:none;stroke:#000000;stroke-width:0.149661px"
     r="6.4251695"
     cy="1029.2502"
     cx="317.08301"
     id="path3762"
     class="cut" />
  <circle
     style="fill:none;stroke:#000000;stroke-width:0.149661px"
     r="6.4251695"
     cy="897.54022"
     cx="317.08301"
     class="cut"
     id="path3764" />
  <rect
     style="fill:none;stroke:#000000;stroke-width:0.2px"
     ry="9.6383038"
     rx="9.6383038"
     class="cut"
     id="rect3768"
     width="34.524403"
     height="25.271631"
     x="25.97279"
     y="1007.1467" />
  <rect
     style="fill:none;stroke:#000000;stroke-width:0.2px"
     y="894.91699"
     x="25.97279"
     height="25.271631"
     width="34.524403"
     id="rect3770"
     class="cut"
     rx="9.6383038"
     ry="9.6383038" />
  <rect
     style="fill:none;stroke:#000000;stroke-width:0.2px"
     y="1007.1467"
     x="356.5"
     height="25.271631"
     width="34.524403"
     id="rect3772"
     class="cut"
     rx="9.6383038"
     ry="9.6383038" />
  <rect
     style="fill:none;stroke:#000000;stroke-width:0.2px"
     ry="9.6383038"
     rx="9.6383038"
     class="cut"
     id="rect3774"
     width="34.524403"
     height="25.271631"
     x="356.5"
     y="894.91699" />
  <rect
     style="fill:none;stroke:#000000;stroke-width:0.19722053px"
     class="cut"
     id="rect2985"
     width="396.79279"
     height="157.29593"
     x="10.052541"
     y="885.0072"
     rx="9.7238121" />
  <rect
     style="fill:none;stroke:#000000;stroke-width:0.2px"
     y="884.99219"
     x="106.665"
     height="157.32001"
     width="214.92"
     id="rect3755"
     class="cut"
     rx="45"
     ry="60" />
  <!-- </defs> -->
  <path
     style="fill:none;stroke:#000000;stroke-width:0.149661px"
     d="M 323.50818,829.20026 A 6.4251695,6.4251695 0 0 1 317.08301,835.62543 6.4251695,6.4251695 0 0 1 310.65784,829.20026 6.4251695,6.4251695 0 0 1 317.08301,822.77509 6.4251695,6.4251695 0 0 1 323.50818,829.20026 Z"
     id="circle4291" />
  <path
     style="fill:none;stroke:#000000;stroke-width:0.149661px"
     d="M 323.50818,697.49023 A 6.4251695,6.4251695 0 0 1 317.08301,703.9154 6.4251695,6.4251695 0 0 1 310.65784,697.49023 6.4251695,6.4251695 0 0 1 317.08301,691.06506 6.4251695,6.4251695 0 0 1 323.50818,697.49023 Z"
     id="circle4293" />
  <path
     style="fill:none;stroke:#000000;stroke-width:0.2px"
     d="M 366.1383,807.09674 381.3861,807.09674 C 386.72572,807.09674 391.0244,811.39542 391.0244,816.73504 L 391.0244,822.73007 C 391.0244,828.06969 386.72572,832.36837 381.3861,832.36837 L 366.1383,832.36837 C 360.79868,832.36837 356.5,828.06969 356.5,822.73007 L 356.5,816.73504 C 356.5,811.39542 360.79868,807.09674 366.1383,807.09674 Z"
     id="rect4299" />
  <path
     style="fill:none;stroke:#000000;stroke-width:0.2px"
     d="M 366.1383,694.867 381.3861,694.867 C 386.72572,694.867 391.0244,699.16569 391.0244,704.50531 L 391.0244,710.50033 C 391.0244,715.83995 386.72572,720.13864 381.3861,720.13864 L 366.1383,720.13864 C 360.79868,720.13864 356.5,715.83995 356.5,710.50033 L 356.5,704.50531 C 356.5,699.16569 360.79868,694.867 366.1383,694.867 Z"
     id="rect4301" />
  <path
     style="fill:none;stroke:#000000;stroke-width:0.19722053px"
     d="M 277.05078,684.95703 C 301.76383,685.28893 321.58594,711.90933 321.58594,744.94141 L 321.58594,782.26172 C 321.58594,815.39776 301.63993,842.08724 276.81836,842.25391 L 397.12109,842.25391 C 402.50809,842.25391 406.8457,837.91629 406.8457,832.5293 L 406.8457,694.68164 C 406.8457,689.29464 402.50809,684.95703 397.12109,684.95703 L 277.05078,684.95703 Z"
     id="rect4303" />
  <path
     id="path4322"
     d="M 143.43613,629.20992 A 6.4251695,6.4251695 0 0 0 149.8613,635.63509 6.4251695,6.4251695 0 0 0 156.28647,629.20992 6.4251695,6.4251695 0 0 0 149.8613,622.78475 6.4251695,6.4251695 0 0 0 143.43613,629.20992 Z"
     style="fill:none;stroke:#000000;stroke-width:0.149661px"
     inkscape:connector-curvature="0" />
  <path
     id="path4324"
     d="M 143.43613,497.49989 A 6.4251695,6.4251695 0 0 0 149.8613,503.92506 6.4251695,6.4251695 0 0 0 156.28647,497.49989 6.4251695,6.4251695 0 0 0 149.8613,491.07472 6.4251695,6.4251695 0 0 0 143.43613,497.49989 Z"
     style="fill:none;stroke:#000000;stroke-width:0.149661px"
     inkscape:connector-curvature="0" />
  <path
     id="path4326"
     d="M 100.80601,607.1064 85.55821,607.1064 C 80.21859,607.1064 75.91991,611.40508 75.91991,616.7447 L 75.91991,622.73973 C 75.91991,628.07935 80.21859,632.37803 85.55821,632.37803 L 100.80601,632.37803 C 106.14563,632.37803 110.44431,628.07935 110.44431,622.73973 L 110.44431,616.7447 C 110.44431,611.40508 106.14563,607.1064 100.80601,607.1064 Z"
     style="fill:none;stroke:#000000;stroke-width:0.2px"
     inkscape:connector-curvature="0" />
  <path
     id="path4328"
     d="M 100.80601,494.87666 85.55821,494.87666 C 80.21859,494.87666 75.91991,499.17535 75.91991,504.51497 L 75.91991,510.50999 C 75.91991,515.84961 80.21859,520.1483 85.55821,520.1483 L 100.80601,520.1483 C 106.14563,520.1483 110.44431,515.84961 110.44431,510.50999 L 110.44431,504.51497 C 110.44431,499.17535 106.14563,494.87666 100.80601,494.87666 Z"
     style="fill:none;stroke:#000000;stroke-width:0.2px"
     inkscape:connector-curvature="0" />
  <path
     id="path4330"
     d="M 189.89353,484.96669 C 165.18048,485.29859 145.35837,511.91899 145.35837,544.95107 L 145.35837,582.27138 C 145.35837,615.40742 165.30438,642.0969 190.12595,642.26357 L 69.82322,642.26357 C 64.43622,642.26357 60.09861,637.92595 60.09861,632.53896 L 60.09861,494.6913 C 60.09861,489.3043 64.43622,484.96669 69.82322,484.96669 L 189.89353,484.96669 Z"
     style="fill:none;stroke:#000000;stroke-width:0.19722053px"
     inkscape:connector-curvature="0" />
</svg>
