<?xml version="1.0" encoding="UTF-8" standalone="no"?>
<!-- Created with Inkscape (http://www.inkscape.org/) -->

<svg
   xmlns:dc="http://purl.org/dc/elements/1.1/"
   xmlns:cc="http://creativecommons.org/ns#"
   xmlns:rdf="http://www.w3.org/1999/02/22-rdf-syntax-ns#"
   xmlns:svg="http://www.w3.org/2000/svg"
   xmlns="http://www.w3.org/2000/svg"
   xmlns:sodipodi="http://sodipodi.sourceforge.net/DTD/sodipodi-0.dtd"
   xmlns:inkscape="http://www.inkscape.org/namespaces/inkscape"
   width="744.09448819"
   height="1052.3622047"
   id="svg2"
   version="1.1"
   inkscape:version="0.91 r13725"
   sodipodi:docname="drawing.svg">
  <style
     id="style4196"> /*  */
    .cut { fill: none; stroke: #000000; stroke-width: 0.2px; }
    .engrave { fill: #000000; stroke: none; }
    .find { fill: none; stroke: #FF0000; stroke-width: 0.2px; }
    /*  */
  </style>
  <defs
     id="defs4" />
  <sodipodi:namedview
     id="base"
     pagecolor="#ffffff"
     bordercolor="#666666"
     borderopacity="1.0"
     inkscape:pageopacity="0.0"
     inkscape:pageshadow="2"
     inkscape:zoom="1.4"
     inkscape:cx="271.02786"
     inkscape:cy="486.05381"
     inkscape:document-units="px"
     inkscape:current-layer="svg2"
     showgrid="false" />
  <metadata
     id="metadata7">
    <rdf:RDF>
      <cc:Work
         rdf:about="">
        <dc:format>image/svg+xml</dc:format>
        <dc:type
           rdf:resource="http://purl.org/dc/dcmitype/StillImage" />
        <dc:title />
      </cc:Work>
    </rdf:RDF>
  </metadata>
  <text
     xml:space="preserve"
     style="font-style:normal;font-variant:normal;font-weight:normal;font-stretch:normal;font-size:16px;line-height:125%;font-family:Garuda;-inkscape-font-specification:Garuda;text-align:start;letter-spacing:0px;word-spacing:0px;writing-mode:lr-tb;text-anchor:start;fill:#000000;fill-opacity:1;stroke:none"
     x="452.93939"
     y="917.62726"
     id="text3776"
     sodipodi:linespacing="125%"><tspan
       sodipodi:role="line"
       id="tspan3778"
       x="452.93939"
       y="917.62726">Original Shapes</tspan><tspan
       sodipodi:role="line"
       x="452.93939"
       y="937.62726"
       id="tspan3780">No Touch</tspan></text>
  <text
     xml:space="preserve"
     style="font-style:normal;font-variant:normal;font-weight:normal;font-stretch:normal;font-size:16px;line-height:125%;font-family:Garuda;-inkscape-font-specification:Garuda;text-align:start;letter-spacing:0px;word-spacing:0px;writing-mode:lr-tb;text-anchor:start;fill:#000000;fill-opacity:1;stroke:none"
     x="446.41605"
     y="716.66681"
     id="text3863"
     sodipodi:linespacing="125%"><tspan
       sodipodi:role="line"
       id="tspan3865"
       x="446.41605"
       y="716.66681">Pair of rack Ears</tspan></text>
  <text
     xml:space="preserve"
     style="font-style:normal;font-variant:normal;font-weight:normal;font-stretch:normal;font-size:16px;line-height:125%;font-family:Garuda;-inkscape-font-specification:Garuda;text-align:start;letter-spacing:0px;word-spacing:0px;writing-mode:lr-tb;text-anchor:start;fill:#000000;fill-opacity:1;stroke:none"
     x="227.84465"
     y="500.23825"
     id="text3891"
     sodipodi:linespacing="125%"><tspan
       sodipodi:role="line"
       id="tspan3893"
       x="227.84465"
       y="500.23825">Use to cut into the shure</tspan><tspan
       sodipodi:role="line"
       x="227.84465"
       y="520.23828"
       id="tspan3895">ears and join psm unit to</tspan><tspan
       sodipodi:role="line"
       x="227.84465"
       y="540.23828"
       id="tspan3897">motu unit</tspan></text>
  <!--     <defs
     id="defs4296"> -->
  <circle
     style="fill:none;stroke:#000000;stroke-width:0.2px"
     sodipodi:ry="8.586297"
     sodipodi:rx="8.586297"
     sodipodi:cy="898.56647"
     sodipodi:cx="-26.263966"
     d="m -17.677669,898.56647 c 0,4.74208 -3.844216,8.58629 -8.586297,8.58629 -4.742081,0 -8.586297,-3.84421 -8.586297,-8.58629 0,-4.74208 3.844216,-8.5863 8.586297,-8.5863 4.742081,0 8.586297,3.84422 8.586297,8.5863 z"
     r="8.586297"
     cy="898.56647"
     cx="-26.263966"
     class="cut"
     id="path3757"
     transform="matrix(0.71541741,0,0,0.71541741,131.59749,388.28571)" />
  <circle
     style="fill:none;stroke:#000000;stroke-width:0.2px"
     sodipodi:ry="8.586297"
     sodipodi:rx="8.586297"
     sodipodi:cy="898.56647"
     sodipodi:cx="-26.263966"
     d="m -17.677669,898.56647 c 0,4.74208 -3.844216,8.58629 -8.586297,8.58629 -4.742081,0 -8.586297,-3.84421 -8.586297,-8.58629 0,-4.74208 3.844216,-8.5863 8.586297,-8.5863 4.742081,0 8.586297,3.84422 8.586297,8.5863 z"
     id="circle4226"
     r="8.586297"
     cy="898.56647"
     cx="-26.263966"
     transform="matrix(0.71541741,0,0,0.71541741,131.59749,253.37571)"
     class="cut" />
  <circle
     style="fill:none;stroke:#000000;stroke-width:0.149661px"
     r="6.4251695"
     cy="1031.2502"
     cx="315.08301"
     id="path3762"
     class="cut" />
  <circle
     style="fill:none;stroke:#000000;stroke-width:0.149661px"
     r="6.4251695"
     cy="895.54022"
     cx="315.08301"
     class="cut"
     id="path3764" />
  <rect
     style="fill:none;stroke:#000000;stroke-width:0.2px"
     ry="9.6383038"
     rx="9.6383038"
     class="cut"
     id="rect3768"
     width="34.524403"
     height="25.271631"
     x="25.97279"
     y="1007.1467" />
  <rect
     style="fill:none;stroke:#000000;stroke-width:0.2px"
     y="894.91699"
     x="25.97279"
     height="25.271631"
     width="34.524403"
     id="rect3770"
     class="cut"
     rx="9.6383038"
     ry="9.6383038" />
  <rect
     style="fill:none;stroke:#000000;stroke-width:0.2px"
     y="1007.1467"
     x="356.5"
     height="25.271631"
     width="34.524403"
     id="rect3772"
     class="cut"
     rx="9.6383038"
     ry="9.6383038" />
  <rect
     style="fill:none;stroke:#000000;stroke-width:0.2px"
     ry="9.6383038"
     rx="9.6383038"
     class="cut"
     id="rect3774"
     width="34.524403"
     height="25.271631"
     x="356.5"
     y="894.91699" />
  <rect
     style="fill:none;stroke:#000000;stroke-width:0.19722053px"
     class="cut"
     id="rect2985"
     width="396.79279"
     height="157.29593"
     x="10.052541"
     y="885.0072"
     rx="9.7238121" />
  <rect
     style="fill:none;stroke:#000000;stroke-width:0.2px"
     y="884.99219"
     x="106.665"
     height="157.32001"
     width="214.92"
     id="rect3755"
     class="cut"
     rx="45"
     ry="60" />
  <!-- </defs> -->
  <path
     style="fill:none;stroke:#000000;stroke-width:0.149661px"
     d="M 321.50818,831.20026 A 6.4251695,6.4251695 0 0 1 315.08301,837.62543 6.4251695,6.4251695 0 0 1 308.65784,831.20026 6.4251695,6.4251695 0 0 1 315.08301,824.77509 6.4251695,6.4251695 0 0 1 321.50818,831.20026 Z"
     id="circle4242" />
  <path
     style="fill:none;stroke:#000000;stroke-width:0.149661px"
     d="M 321.50818,695.49023 A 6.4251695,6.4251695 0 0 1 315.08301,701.9154 6.4251695,6.4251695 0 0 1 308.65784,695.49023 6.4251695,6.4251695 0 0 1 315.08301,689.06506 6.4251695,6.4251695 0 0 1 321.50818,695.49023 Z"
     id="circle4244" />
  <path
     style="fill:none;stroke:#000000;stroke-width:0.2px"
     d="M 366.1383,807.09674 381.3861,807.09674 C 386.72572,807.09674 391.0244,811.39542 391.0244,816.73504 L 391.0244,822.73007 C 391.0244,828.06969 386.72572,832.36837 381.3861,832.36837 L 366.1383,832.36837 C 360.79868,832.36837 356.5,828.06969 356.5,822.73007 L 356.5,816.73504 C 356.5,811.39542 360.79868,807.09674 366.1383,807.09674 Z"
     id="rect4250" />
  <path
     style="fill:none;stroke:#000000;stroke-width:0.2px"
     d="M 366.1383,694.867 381.3861,694.867 C 386.72572,694.867 391.0244,699.16569 391.0244,704.50531 L 391.0244,710.50033 C 391.0244,715.83995 386.72572,720.13864 381.3861,720.13864 L 366.1383,720.13864 C 360.79868,720.13864 356.5,715.83995 356.5,710.50033 L 356.5,704.50531 C 356.5,699.16569 360.79868,694.867 366.1383,694.867 Z"
     id="rect4252" />
  <path
     style="fill:none;stroke:#000000;stroke-width:0.19722053px"
     d="M 277.05078,684.95703 C 301.76383,685.28893 321.58594,711.90933 321.58594,744.94141 L 321.58594,782.26172 C 321.58594,815.39776 301.63993,842.08724 276.81836,842.25391 L 397.12109,842.25391 C 402.50809,842.25391 406.8457,837.91629 406.8457,832.5293 L 406.8457,694.68164 C 406.8457,689.29464 402.50809,684.95703 397.12109,684.95703 L 277.05078,684.95703 Z"
     id="rect4254" />
  <path
     id="path4273"
     d="M 135.43613,631.20992 A 6.4251695,6.4251695 0 0 0 141.8613,637.63509 6.4251695,6.4251695 0 0 0 148.28647,631.20992 6.4251695,6.4251695 0 0 0 141.8613,624.78475 6.4251695,6.4251695 0 0 0 135.43613,631.20992 Z"
     style="fill:none;stroke:#000000;stroke-width:0.149661px"
     inkscape:connector-curvature="0" />
  <path
     id="path4275"
     d="M 135.43613,495.49989 A 6.4251695,6.4251695 0 0 0 141.8613,501.92506 6.4251695,6.4251695 0 0 0 148.28647,495.49989 6.4251695,6.4251695 0 0 0 141.8613,489.07472 6.4251695,6.4251695 0 0 0 135.43613,495.49989 Z"
     style="fill:none;stroke:#000000;stroke-width:0.149661px"
     inkscape:connector-curvature="0" />
  <path
     style="fill:none;stroke:#000000;stroke-width:0.19722053px"
     d="M 179.89353,484.96669 C 155.18048,485.29859 135.35837,511.91899 135.35837,544.95107 L 135.35837,582.27138 C 135.35837,615.40742 155.30438,642.0969 180.12595,642.26357"
     id="path4285" />
</svg>
