<?xml version="1.0" encoding="UTF-8" standalone="no"?>
<!-- Created with Inkscape (http://www.inkscape.org/) -->

<svg
   xmlns:dc="http://purl.org/dc/elements/1.1/"
   xmlns:cc="http://creativecommons.org/ns#"
   xmlns:rdf="http://www.w3.org/1999/02/22-rdf-syntax-ns#"
   xmlns:svg="http://www.w3.org/2000/svg"
   xmlns="http://www.w3.org/2000/svg"
   xmlns:sodipodi="http://sodipodi.sourceforge.net/DTD/sodipodi-0.dtd"
   xmlns:inkscape="http://www.inkscape.org/namespaces/inkscape"
   width="744.09448819"
   height="1052.3622047"
   id="svg2"
   version="1.1"
   inkscape:version="0.91 r13725"
   sodipodi:docname="drawing.svg">
  <style
     id="style4196"> /*  */
    .cut { fill: none; stroke: #000000; stroke-width: 0.2px; }
    .engrave { fill: #000000; stroke: none; }
    .find { fill: none; stroke: #FF0000; stroke-width: 0.2px; }
    /*  */
  </style>
  <defs
     id="defs4" />
  <sodipodi:namedview
     id="base"
     pagecolor="#ffffff"
     bordercolor="#666666"
     borderopacity="1.0"
     inkscape:pageopacity="0.0"
     inkscape:pageshadow="2"
     inkscape:zoom="1.4"
     inkscape:cx="30.078609"
     inkscape:cy="408.80298"
     inkscape:document-units="px"
     inkscape:current-layer="svg2"
     showgrid="false" />
  <metadata
     id="metadata7">
    <rdf:RDF>
      <cc:Work
         rdf:about="">
        <dc:format>image/svg+xml</dc:format>
        <dc:type
           rdf:resource="http://purl.org/dc/dcmitype/StillImage" />
        <dc:title />
      </cc:Work>
    </rdf:RDF>
  </metadata>
  <text
     xml:space="preserve"
     style="font-style:normal;font-variant:normal;font-weight:normal;font-stretch:normal;font-size:16px;line-height:125%;font-family:Garuda;-inkscape-font-specification:Garuda;text-align:start;letter-spacing:0px;word-spacing:0px;writing-mode:lr-tb;text-anchor:start;fill:#000000;fill-opacity:1;stroke:none"
     x="452.93939"
     y="917.62726"
     id="text3776"
     sodipodi:linespacing="125%"><tspan
       sodipodi:role="line"
       id="tspan3778"
       x="452.93939"
       y="917.62726">Original Shapes</tspan><tspan
       sodipodi:role="line"
       x="452.93939"
       y="937.62726"
       id="tspan3780">No Touch</tspan></text>
  <text
     xml:space="preserve"
     style="font-style:normal;font-variant:normal;font-weight:normal;font-stretch:normal;font-size:16px;line-height:125%;font-family:Garuda;-inkscape-font-specification:Garuda;text-align:start;letter-spacing:0px;word-spacing:0px;writing-mode:lr-tb;text-anchor:start;fill:#000000;fill-opacity:1;stroke:none"
     x="446.41605"
     y="716.66681"
     id="text3863"
     sodipodi:linespacing="125%"><tspan
       sodipodi:role="line"
       id="tspan3865"
       x="446.41605"
       y="716.66681">Pair of rack Ears</tspan></text>
  <text
     xml:space="preserve"
     style="font-style:normal;font-variant:normal;font-weight:normal;font-stretch:normal;font-size:16px;line-height:125%;font-family:Garuda;-inkscape-font-specification:Garuda;text-align:start;letter-spacing:0px;word-spacing:0px;writing-mode:lr-tb;text-anchor:start;fill:#000000;fill-opacity:1;stroke:none"
     x="227.84465"
     y="500.23825"
     id="text3891"
     sodipodi:linespacing="125%"><tspan
       sodipodi:role="line"
       id="tspan3893"
       x="227.84465"
       y="500.23825">Use to cut into the shure</tspan><tspan
       sodipodi:role="line"
       x="227.84465"
       y="520.23828"
       id="tspan3895">ears and join psm unit to</tspan><tspan
       sodipodi:role="line"
       x="227.84465"
       y="540.23828"
       id="tspan3897">motu unit</tspan></text>
  <!--     <defs
     id="defs4296"> -->
  <circle
     style="fill:none;stroke:#000000;stroke-width:0.2px"
     sodipodi:ry="8.586297"
     sodipodi:rx="8.586297"
     sodipodi:cy="898.56647"
     sodipodi:cx="-26.263966"
     d="m -17.677669,898.56647 c 0,4.74208 -3.844216,8.58629 -8.586297,8.58629 -4.742081,0 -8.586297,-3.84421 -8.586297,-8.58629 0,-4.74208 3.844216,-8.5863 8.586297,-8.5863 4.742081,0 8.586297,3.84422 8.586297,8.5863 z"
     r="8.586297"
     cy="898.56647"
     cx="-26.263966"
     class="cut"
     id="path3757"
     transform="matrix(0.71541741,0,0,0.71541741,131.59749,388.28571)" />
  <circle
     style="fill:none;stroke:#000000;stroke-width:0.2px"
     sodipodi:ry="8.586297"
     sodipodi:rx="8.586297"
     sodipodi:cy="898.56647"
     sodipodi:cx="-26.263966"
     d="m -17.677669,898.56647 c 0,4.74208 -3.844216,8.58629 -8.586297,8.58629 -4.742081,0 -8.586297,-3.84421 -8.586297,-8.58629 0,-4.74208 3.844216,-8.5863 8.586297,-8.5863 4.742081,0 8.586297,3.84422 8.586297,8.5863 z"
     id="circle4226"
     r="8.586297"
     cy="898.56647"
     cx="-26.263966"
     transform="matrix(0.71541741,0,0,0.71541741,131.59749,253.37571)"
     class="cut" />
  <circle
     style="fill:none;stroke:#000000;stroke-width:0.149661px"
     r="6.4251695"
     cy="1029.2502"
     cx="317.08301"
     id="path3762"
     class="cut" />
  <circle
     style="fill:none;stroke:#000000;stroke-width:0.149661px"
     r="6.4251695"
     cy="897.54022"
     cx="317.08301"
     class="cut"
     id="path3764" />
  <rect
     style="fill:none;stroke:#000000;stroke-width:0.2px"
     ry="9.6383038"
     rx="9.6383038"
     class="cut"
     id="rect3768"
     width="34.524403"
     height="25.271631"
     x="25.97279"
     y="1007.1467" />
  <rect
     style="fill:none;stroke:#000000;stroke-width:0.2px"
     y="894.91699"
     x="25.97279"
     height="25.271631"
     width="34.524403"
     id="rect3770"
     class="cut"
     rx="9.6383038"
     ry="9.6383038" />
  <rect
     style="fill:none;stroke:#000000;stroke-width:0.21602686px"
     y="1007.1417"
     x="337.608"
     height="25.268684"
     width="40.283974"
     id="rect3772"
     class="cut"
     rx="11.246223"
     ry="9.6371803" />
  <rect
     style="fill:none;stroke:#000000;stroke-width:0.21602686px"
     ry="9.6371803"
     rx="11.246223"
     class="cut"
     id="rect3774"
     width="40.283974"
     height="25.268684"
     x="337.608"
     y="894.92499" />
  <rect
     style="fill:none;stroke:#000000;stroke-width:0.19155218px"
     class="cut"
     id="rect2985"
     width="374.29846"
     height="157.30159"
     x="10.049706"
     y="885.00439"
     rx="9.1725655" />
  <rect
     style="fill:none;stroke:#000000;stroke-width:0.2px"
     y="884.99219"
     x="106.665"
     height="157.32001"
     width="214.92"
     id="rect3755"
     class="cut"
     rx="45"
     ry="60" />
  <!-- </defs> -->
  <path
     style="fill:none;stroke:#000000;stroke-width:0.149661px"
     d="M 323.50818,829.20026 A 6.4251695,6.4251695 0 0 1 317.08301,835.62543 6.4251695,6.4251695 0 0 1 310.65784,829.20026 6.4251695,6.4251695 0 0 1 317.08301,822.77509 6.4251695,6.4251695 0 0 1 323.50818,829.20026 Z"
     id="circle4174" />
  <path
     style="fill:none;stroke:#000000;stroke-width:0.149661px"
     d="M 323.50818,697.49023 A 6.4251695,6.4251695 0 0 1 317.08301,703.9154 6.4251695,6.4251695 0 0 1 310.65784,697.49023 6.4251695,6.4251695 0 0 1 317.08301,691.06506 6.4251695,6.4251695 0 0 1 323.50818,697.49023 Z"
     id="circle4176" />
  <path
     style="fill:none;stroke:#000000;stroke-width:0.21602686px"
     d="M 348.85423,807.09174 366.64575,807.09174 C 372.87616,807.09174 377.89198,811.38992 377.89198,816.72892 L 377.89198,822.72324 C 377.89198,828.06224 372.87616,832.36042 366.64575,832.36042 L 348.85423,832.36042 C 342.62382,832.36042 337.608,828.06224 337.608,822.72324 L 337.608,816.72892 C 337.608,811.38992 342.62382,807.09174 348.85423,807.09174 Z"
     id="rect4182" />
  <path
     style="fill:none;stroke:#000000;stroke-width:0.21602686px"
     d="M 348.85423,694.875 366.64575,694.875 C 372.87616,694.875 377.89198,699.17318 377.89198,704.51218 L 377.89198,710.5065 C 377.89198,715.8455 372.87616,720.14368 366.64575,720.14368 L 348.85423,720.14368 C 342.62382,720.14368 337.608,715.8455 337.608,710.5065 L 337.608,704.51218 C 337.608,699.17318 342.62382,694.875 348.85423,694.875 Z"
     id="rect4184" />
  <path
     style="fill:none;stroke:#000000;stroke-width:0.19155218px"
     d="M 276.99219,684.95508 C 301.7326,685.24546 321.58594,711.88312 321.58594,744.94141 L 321.58594,782.26172 C 321.58594,815.42397 301.60868,842.13107 276.75977,842.25586 L 375.17578,842.25586 C 380.25738,842.25586 384.34766,838.16558 384.34766,833.08398 L 384.34766,694.12695 C 384.34766,689.04535 380.25738,684.95508 375.17578,684.95508 L 276.99219,684.95508 Z"
     id="rect4186" />
  <path
     id="path4205"
     d="M 120.93526,629.21081 A 6.4251695,6.4251695 0 0 0 127.36043,635.63598 6.4251695,6.4251695 0 0 0 133.7856,629.21081 6.4251695,6.4251695 0 0 0 127.36043,622.78564 6.4251695,6.4251695 0 0 0 120.93526,629.21081 Z"
     style="fill:none;stroke:#000000;stroke-width:0.149661px"
     inkscape:connector-curvature="0" />
  <path
     id="path4207"
     d="M 120.93526,497.50078 A 6.4251695,6.4251695 0 0 0 127.36043,503.92595 6.4251695,6.4251695 0 0 0 133.7856,497.50078 6.4251695,6.4251695 0 0 0 127.36043,491.07561 6.4251695,6.4251695 0 0 0 120.93526,497.50078 Z"
     style="fill:none;stroke:#000000;stroke-width:0.149661px"
     inkscape:connector-curvature="0" />
  <path
     style="fill:none;stroke:#000000;stroke-width:0.19155218px"
     d="M 167.45125,484.96563 C 142.71084,485.25601 122.8575,511.89367 122.8575,544.95196 L 122.8575,582.27227 C 122.8575,615.43452 142.83476,642.14162 167.68367,642.26641"
     id="path4217" />
</svg>
